<svg width="24" height="23" viewBox="0 0 24 23" fill="none" xmlns="http://www.w3.org/2000/svg">
<path d="M21.9604 3.39504L16.98 0.771973" stroke="#FFD132"/>
<path d="M17.3937 4.18612L20.0319 1.59961" stroke="#FFD132"/>
<path d="M16.98 0.771973L11.7725 3.42746" stroke="#FFD132"/>
<path d="M17.3937 4.18617L16.9799 0.771973" stroke="#FFD132"/>
<path d="M21.9461 3.39307L19.9803 6.84175L17.3938 11.463L15.1866 17.843" stroke="#FFD132"/>
<path d="M11.7896 22.1193L15.1845 17.8454L17.6178 17.6016" stroke="#FFD132"/>
<path d="M22.6358 9.91085L17.3938 4.18604L11.7725 6.97947" stroke="#FFD132"/>
<path d="M17.3938 4.18645L11.8069 3.42773" stroke="#FFD132"/>
<path d="M17.3937 11.463L22.6357 9.91113" stroke="#FFD132"/>
<path d="M20.3596 14.4289L17.3937 11.463L11.781 10.7388L19.9802 6.8418" stroke="#FFD132"/>
<path d="M11.781 14.4288L17.3937 11.4629" stroke="#FFD132"/>
<path d="M23.0669 6.94501L19.9803 6.84154L19.5148 2.09961" stroke="#FFD132"/>
<path d="M11.781 10.7385L17.3937 4.18604" stroke="#FFD132"/>
<path d="M20.3596 14.4287L15.1866 17.8429L11.781 14.4287" stroke="#FFD132"/>
<path fill-rule="evenodd" clip-rule="evenodd" d="M11.7819 3.41813L10.7131 2.26303L9.36545 1.40173L6.58851 0.770996L3.53191 1.58982L1.59896 3.3821L0.496826 6.94113L0.928256 9.90565L3.20463 14.4363L5.95288 17.6074L9.55958 20.6446L11.7819 22.1247L14.0042 20.6446L17.6109 17.6074L20.3591 14.4363L22.6355 9.90565L23.0669 6.94113L21.9648 3.3821L20.0318 1.58982L16.9752 0.770996L14.1983 1.40173L12.8506 2.26303L11.7819 3.41813Z" stroke="#FFD132"/>
<path d="M1.60156 3.39504L6.58201 0.771973" stroke="#FFD132"/>
<path d="M6.16827 4.18627L3.53003 1.58252" stroke="#FFD132"/>
<path d="M6.58203 0.771973L11.7895 3.42746" stroke="#FFD132"/>
<path d="M6.16821 4.18617L6.58205 0.771973" stroke="#FFD132"/>
<path d="M1.61597 3.39307L3.58171 6.84175L6.16822 11.463L8.37538 17.843" stroke="#FFD132"/>
<path d="M11.7724 22.1193L8.37541 17.843L5.94409 17.6016" stroke="#FFD132"/>
<path d="M0.92627 9.91085L6.16826 4.18604L11.7896 6.97947" stroke="#FFD132"/>
<path d="M6.16821 4.18645L11.7551 3.42773" stroke="#FFD132"/>
<path d="M6.16826 11.463L0.92627 9.91113" stroke="#FFD132"/>
<path d="M3.20239 14.4289L6.16826 11.463L11.781 10.7388L3.58175 6.8418" stroke="#FFD132"/>
<path d="M11.7809 14.4288L6.16821 11.4629" stroke="#FFD132"/>
<path d="M0.495239 6.94501L3.58181 6.84154L4.06462 2.09961" stroke="#FFD132"/>
<path d="M11.7809 10.7385L6.16821 4.18604" stroke="#FFD132"/>
<path d="M3.20239 14.4287L8.37542 17.8429L11.781 14.4287" stroke="#FFD132"/>
<path d="M11.8217 3.42773L11.7725 22.1196" stroke="#FFD132"/>
</svg>
