<svg xmlns="http://www.w3.org/2000/svg" xmlns:xlink="http://www.w3.org/1999/xlink" width="500" zoomAndPan="magnify" viewBox="0 0 375 374.999991" height="500" preserveAspectRatio="xMidYMid meet" version="1.0"><defs><clipPath id="id1"><path d="M 113 135 L 262.5 135 L 262.5 240 L 113 240 Z M 113 135 " clip-rule="nonzero"/></clipPath></defs><g clip-path="url(#id1)"><path fill="#f0860c" d="M 120.707031 135.261719 C 120.214844 135.253906 119.722656 135.296875 119.238281 135.386719 C 118.75 135.476562 118.28125 135.613281 117.820312 135.796875 C 117.363281 135.984375 116.925781 136.210938 116.511719 136.480469 C 116.097656 136.753906 115.714844 137.0625 115.363281 137.410156 C 115.011719 137.757812 114.695312 138.136719 114.417969 138.542969 C 114.144531 138.953125 113.910156 139.386719 113.71875 139.84375 C 113.527344 140.300781 113.382812 140.769531 113.285156 141.253906 C 113.1875 141.738281 113.140625 142.230469 113.140625 142.722656 C 113.140625 143.21875 113.1875 143.707031 113.285156 144.191406 C 113.382812 144.675781 113.527344 145.148438 113.71875 145.605469 C 113.910156 146.058594 114.144531 146.492188 114.417969 146.902344 C 114.695312 147.3125 115.011719 147.691406 115.363281 148.039062 C 115.714844 148.386719 116.097656 148.695312 116.511719 148.964844 C 116.925781 149.238281 117.363281 149.464844 117.820312 149.648438 C 118.28125 149.832031 118.75 149.972656 119.238281 150.0625 C 119.722656 150.152344 120.214844 150.195312 120.707031 150.1875 L 255.039062 150.1875 C 255.53125 150.195312 256.023438 150.152344 256.507812 150.0625 C 256.996094 149.972656 257.46875 149.832031 257.925781 149.648438 C 258.382812 149.464844 258.820312 149.238281 259.234375 148.964844 C 259.648438 148.695312 260.03125 148.386719 260.382812 148.039062 C 260.734375 147.691406 261.050781 147.3125 261.328125 146.902344 C 261.601562 146.492188 261.835938 146.058594 262.027344 145.605469 C 262.21875 145.148438 262.363281 144.675781 262.460938 144.191406 C 262.558594 143.707031 262.605469 143.21875 262.605469 142.722656 C 262.605469 142.230469 262.558594 141.738281 262.460938 141.253906 C 262.363281 140.769531 262.21875 140.300781 262.027344 139.84375 C 261.835938 139.386719 261.601562 138.953125 261.328125 138.542969 C 261.050781 138.136719 260.734375 137.757812 260.382812 137.410156 C 260.03125 137.0625 259.648438 136.753906 259.234375 136.480469 C 258.820312 136.210938 258.382812 135.984375 257.925781 135.796875 C 257.46875 135.613281 256.996094 135.476562 256.507812 135.386719 C 256.023438 135.296875 255.53125 135.253906 255.039062 135.261719 Z M 120.707031 180.039062 C 120.214844 180.03125 119.722656 180.070312 119.238281 180.164062 C 118.75 180.253906 118.28125 180.390625 117.820312 180.574219 C 117.363281 180.757812 116.925781 180.988281 116.511719 181.257812 C 116.097656 181.527344 115.714844 181.839844 115.363281 182.183594 C 115.011719 182.53125 114.695312 182.910156 114.421875 183.320312 C 114.144531 183.730469 113.910156 184.164062 113.71875 184.621094 C 113.527344 185.074219 113.382812 185.546875 113.285156 186.03125 C 113.1875 186.515625 113.140625 187.003906 113.140625 187.5 C 113.140625 187.996094 113.1875 188.484375 113.285156 188.96875 C 113.382812 189.453125 113.527344 189.925781 113.71875 190.378906 C 113.910156 190.835938 114.144531 191.269531 114.421875 191.679688 C 114.695312 192.089844 115.011719 192.46875 115.363281 192.816406 C 115.714844 193.160156 116.097656 193.472656 116.511719 193.742188 C 116.925781 194.011719 117.363281 194.242188 117.820312 194.425781 C 118.28125 194.609375 118.75 194.746094 119.238281 194.835938 C 119.722656 194.929688 120.214844 194.96875 120.707031 194.960938 L 255.039062 194.960938 C 255.53125 194.96875 256.023438 194.929688 256.507812 194.835938 C 256.996094 194.746094 257.46875 194.609375 257.925781 194.425781 C 258.382812 194.242188 258.820312 194.011719 259.234375 193.742188 C 259.648438 193.472656 260.03125 193.160156 260.382812 192.816406 C 260.734375 192.46875 261.050781 192.089844 261.328125 191.679688 C 261.601562 191.269531 261.835938 190.835938 262.027344 190.378906 C 262.21875 189.925781 262.363281 189.453125 262.460938 188.96875 C 262.558594 188.484375 262.605469 187.996094 262.605469 187.5 C 262.605469 187.003906 262.558594 186.515625 262.460938 186.03125 C 262.363281 185.546875 262.21875 185.074219 262.027344 184.621094 C 261.835938 184.164062 261.601562 183.730469 261.328125 183.320312 C 261.050781 182.910156 260.734375 182.53125 260.382812 182.183594 C 260.03125 181.839844 259.648438 181.527344 259.234375 181.257812 C 258.820312 180.988281 258.382812 180.757812 257.925781 180.574219 C 257.46875 180.390625 256.996094 180.253906 256.507812 180.164062 C 256.023438 180.070312 255.53125 180.03125 255.039062 180.039062 Z M 120.707031 224.8125 C 120.214844 224.804688 119.722656 224.847656 119.238281 224.9375 C 118.75 225.027344 118.28125 225.167969 117.820312 225.351562 C 117.363281 225.535156 116.925781 225.761719 116.511719 226.035156 C 116.097656 226.304688 115.714844 226.613281 115.363281 226.960938 C 115.011719 227.308594 114.695312 227.6875 114.417969 228.097656 C 114.144531 228.507812 113.910156 228.9375 113.71875 229.394531 C 113.527344 229.851562 113.382812 230.324219 113.285156 230.808594 C 113.1875 231.292969 113.140625 231.78125 113.140625 232.277344 C 113.140625 232.769531 113.1875 233.261719 113.285156 233.746094 C 113.382812 234.230469 113.527344 234.699219 113.71875 235.15625 C 113.910156 235.613281 114.144531 236.046875 114.417969 236.457031 C 114.695312 236.863281 115.011719 237.242188 115.363281 237.589844 C 115.714844 237.9375 116.097656 238.246094 116.511719 238.519531 C 116.925781 238.789062 117.363281 239.015625 117.820312 239.203125 C 118.28125 239.386719 118.75 239.523438 119.238281 239.613281 C 119.722656 239.703125 120.214844 239.746094 120.707031 239.738281 L 255.039062 239.738281 C 255.53125 239.746094 256.023438 239.703125 256.507812 239.613281 C 256.996094 239.523438 257.46875 239.386719 257.925781 239.203125 C 258.382812 239.015625 258.820312 238.789062 259.234375 238.519531 C 259.648438 238.246094 260.03125 237.9375 260.382812 237.589844 C 260.734375 237.242188 261.050781 236.863281 261.328125 236.457031 C 261.601562 236.046875 261.835938 235.613281 262.027344 235.15625 C 262.21875 234.699219 262.363281 234.230469 262.460938 233.746094 C 262.558594 233.261719 262.605469 232.769531 262.605469 232.277344 C 262.605469 231.78125 262.558594 231.292969 262.460938 230.808594 C 262.363281 230.324219 262.21875 229.851562 262.027344 229.394531 C 261.835938 228.9375 261.601562 228.507812 261.328125 228.097656 C 261.050781 227.6875 260.734375 227.308594 260.382812 226.960938 C 260.03125 226.613281 259.648438 226.304688 259.234375 226.035156 C 258.820312 225.761719 258.382812 225.535156 257.925781 225.351562 C 257.46875 225.167969 256.996094 225.027344 256.507812 224.9375 C 256.023438 224.847656 255.53125 224.804688 255.039062 224.8125 Z M 120.707031 224.8125 " fill-opacity="1" fill-rule="nonzero"/></g></svg>