<svg xmlns="http://www.w3.org/2000/svg" xmlns:xlink="http://www.w3.org/1999/xlink" width="500" zoomAndPan="magnify" viewBox="0 0 375 374.999991" height="500" preserveAspectRatio="xMidYMid meet" version="1.0"><defs><g/></defs><g fill="#ffffff" fill-opacity="1"><g transform="translate(112.813667, 230.247868)"><g><path d="M 66.230469 -21.703125 C 64.300781 -43.726562 26.042969 -53.210938 27.328125 -70.25 C 27.8125 -77 32.3125 -80.054688 37.9375 -79.253906 C 53.53125 -77.164062 58.191406 -61.890625 60.121094 -52.246094 C 60.445312 -52.246094 60.925781 -52.246094 60.925781 -52.246094 L 60.925781 -78.289062 L 60.121094 -78.289062 C 59.320312 -77.484375 57.871094 -76.679688 56.101562 -76.519531 C 49.191406 -76.039062 44.367188 -80.539062 32.792969 -80.539062 C 20.898438 -80.539062 5.625 -74.589844 5.625 -61.730469 C 5.625 -39.222656 46.296875 -26.683594 46.296875 -10.609375 C 46.296875 -4.824219 41.636719 -0.160156 35.847656 -0.160156 C 32.632812 -0.160156 31.027344 -0.320312 28.9375 -0.644531 C 25.722656 -1.125 22.988281 -3.535156 22.988281 -5.949219 C 22.988281 -10.128906 30.542969 -11.414062 30.542969 -20.09375 C 30.542969 -26.847656 24.917969 -32.472656 18.003906 -32.472656 C 11.253906 -32.472656 5.625 -26.847656 5.625 -20.09375 C 5.625 -8.199219 19.453125 0.804688 35.847656 0.804688 C 52.566406 0.804688 67.195312 -9.003906 66.230469 -21.703125 Z M 66.230469 -21.703125 "/></g></g></g><g fill="#f0860c" fill-opacity="1"><g transform="translate(178.440492, 230.760937)"><g><path d="M 78.289062 -12.058594 L 78.289062 -109.636719 C 78.289062 -111.246094 77.164062 -112.53125 75.558594 -112.53125 C 75.394531 -112.53125 75.234375 -112.53125 75.074219 -112.53125 L 47.585938 -108.511719 L 47.585938 -107.546875 C 51.28125 -106.90625 54.175781 -103.527344 54.175781 -99.671875 L 54.175781 -77.164062 C 50.960938 -78.933594 45.496094 -80.539062 40.027344 -80.539062 C 23.472656 -80.539062 5.625 -63.179688 5.625 -37.777344 C 5.625 -17.683594 17.363281 -0.964844 33.597656 0.644531 C 40.992188 1.445312 48.226562 -1.125 54.175781 -5.949219 L 54.175781 -2.089844 C 54.175781 -0.480469 55.460938 0.804688 56.910156 0.804688 C 57.070312 0.804688 57.230469 0.804688 57.390625 0.804688 L 84.882812 -3.214844 L 84.882812 -4.179688 C 81.183594 -4.824219 78.289062 -8.199219 78.289062 -12.058594 Z M 48.871094 -5.949219 C 38.261719 -5.949219 29.578125 -21.863281 29.578125 -41.636719 C 29.578125 -61.410156 38.261719 -77.324219 48.871094 -77.324219 C 50.640625 -77.324219 52.40625 -76.84375 54.175781 -76.039062 L 54.175781 -7.234375 C 52.40625 -6.429688 50.640625 -5.949219 48.871094 -5.949219 Z M 48.871094 -5.949219 "/></g></g></g><g fill="#f0860c" fill-opacity="1"><g transform="translate(204.389402, 124.119648)"><g><path d="M 0.578125 -2.5625 L 0.8125 -1.796875 C 1.007812 -1.160156 1.203125 -0.703125 1.390625 -0.421875 C 1.253906 -0.328125 1.109375 -0.257812 0.953125 -0.21875 C 0.785156 -0.164062 0.660156 -0.160156 0.578125 -0.203125 C 0.492188 -0.242188 0.425781 -0.332031 0.375 -0.46875 C 0.351562 -0.550781 0.296875 -0.742188 0.203125 -1.046875 C 0.117188 -1.347656 0.0507812 -1.582031 0 -1.75 L -0.453125 -3.25 C -0.648438 -3.894531 -0.847656 -4.414062 -1.046875 -4.8125 C -0.546875 -5.007812 -0.0234375 -5.191406 0.515625 -5.359375 C 1.222656 -5.578125 1.628906 -5.664062 1.734375 -5.625 C 1.796875 -5.59375 1.847656 -5.523438 1.890625 -5.421875 C 1.929688 -5.265625 1.945312 -5.128906 1.9375 -5.015625 C 1.644531 -5.023438 1.210938 -4.941406 0.640625 -4.765625 C 0.421875 -4.703125 0.1875 -4.628906 -0.0625 -4.546875 C 0 -4.398438 0.101562 -4.082031 0.25 -3.59375 L 0.40625 -3.140625 L 0.953125 -3.296875 C 1.328125 -3.421875 1.585938 -3.515625 1.734375 -3.578125 C 1.765625 -3.546875 1.796875 -3.472656 1.828125 -3.359375 C 1.878906 -3.222656 1.890625 -3.117188 1.859375 -3.046875 C 1.828125 -2.984375 1.757812 -2.9375 1.65625 -2.90625 C 1.539062 -2.863281 1.378906 -2.8125 1.171875 -2.75 Z M 0.578125 -2.5625 "/></g></g></g><g fill="#f0860c" fill-opacity="1"><g transform="translate(213.206996, 121.796389)"><g><path d="M 3.203125 -1.21875 C 3.335938 -1.101562 3.476562 -1.054688 3.625 -1.078125 C 3.6875 -1.085938 3.742188 -1.101562 3.796875 -1.125 C 3.859375 -1.03125 3.894531 -0.953125 3.90625 -0.890625 C 3.925781 -0.773438 3.878906 -0.675781 3.765625 -0.59375 C 3.648438 -0.519531 3.507812 -0.472656 3.34375 -0.453125 C 3.0625 -0.398438 2.785156 -0.5 2.515625 -0.75 C 2.328125 -0.914062 2.125 -1.15625 1.90625 -1.46875 C 1.6875 -1.789062 1.515625 -2.0625 1.390625 -2.28125 C 1.265625 -2.300781 1.191406 -2.367188 1.171875 -2.484375 C 1.160156 -2.578125 1.164062 -2.679688 1.1875 -2.796875 C 1.269531 -2.785156 1.363281 -2.789062 1.46875 -2.8125 C 1.726562 -2.851562 1.9375 -2.96875 2.09375 -3.15625 C 2.25 -3.34375 2.300781 -3.59375 2.25 -3.90625 C 2.195312 -4.257812 2.070312 -4.488281 1.875 -4.59375 C 1.6875 -4.707031 1.410156 -4.734375 1.046875 -4.671875 C 0.910156 -4.648438 0.75 -4.617188 0.5625 -4.578125 C 0.625 -4.296875 0.710938 -3.804688 0.828125 -3.109375 L 1.046875 -1.671875 C 1.148438 -1.023438 1.273438 -0.550781 1.421875 -0.25 C 1.316406 -0.207031 1.164062 -0.171875 0.96875 -0.140625 C 0.78125 -0.109375 0.648438 -0.117188 0.578125 -0.171875 C 0.503906 -0.222656 0.457031 -0.328125 0.4375 -0.484375 C 0.425781 -0.554688 0.394531 -0.75 0.34375 -1.0625 C 0.300781 -1.375 0.269531 -1.613281 0.25 -1.78125 L 0.015625 -3.25 C -0.0859375 -3.9375 -0.207031 -4.5 -0.34375 -4.9375 C 0.0078125 -5.0625 0.390625 -5.15625 0.796875 -5.21875 C 2.171875 -5.4375 2.9375 -5.046875 3.09375 -4.046875 C 3.15625 -3.671875 3.101562 -3.34375 2.9375 -3.0625 C 2.78125 -2.78125 2.539062 -2.566406 2.21875 -2.421875 C 2.644531 -1.773438 2.972656 -1.375 3.203125 -1.21875 Z M 3.203125 -1.21875 "/></g></g></g><g fill="#f0860c" fill-opacity="1"><g transform="translate(222.862822, 120.680838)"><g><path d="M 2.671875 0.078125 C 1.953125 0.078125 1.378906 -0.148438 0.953125 -0.609375 C 0.523438 -1.078125 0.3125 -1.695312 0.3125 -2.46875 C 0.320312 -3.25 0.539062 -3.867188 0.96875 -4.328125 C 1.394531 -4.796875 1.96875 -5.03125 2.6875 -5.03125 C 3.40625 -5.019531 3.976562 -4.78125 4.40625 -4.3125 C 4.84375 -3.851562 5.054688 -3.234375 5.046875 -2.453125 C 5.046875 -1.679688 4.828125 -1.0625 4.390625 -0.59375 C 3.960938 -0.132812 3.390625 0.0859375 2.671875 0.078125 Z M 4.1875 -2.328125 C 4.1875 -2.691406 4.140625 -3.019531 4.046875 -3.3125 C 3.960938 -3.613281 3.800781 -3.875 3.5625 -4.09375 C 3.332031 -4.320312 3.046875 -4.4375 2.703125 -4.4375 C 2.234375 -4.4375 1.859375 -4.269531 1.578125 -3.9375 C 1.296875 -3.613281 1.15625 -3.195312 1.15625 -2.6875 C 1.15625 -2.3125 1.203125 -1.96875 1.296875 -1.65625 C 1.390625 -1.34375 1.554688 -1.070312 1.796875 -0.84375 C 2.035156 -0.625 2.328125 -0.515625 2.671875 -0.515625 C 3.160156 -0.515625 3.535156 -0.679688 3.796875 -1.015625 C 4.054688 -1.347656 4.1875 -1.785156 4.1875 -2.328125 Z M 4.1875 -2.328125 "/></g></g></g><g fill="#f0860c" fill-opacity="1"><g transform="translate(233.879723, 121.197128)"><g><path d="M 4.125 0.6875 C 4.019531 0.675781 3.914062 0.664062 3.8125 0.65625 C 3.5625 0.613281 3.40625 0.519531 3.34375 0.375 C 3.164062 -0.03125 2.910156 -0.6875 2.578125 -1.59375 C 2.242188 -2.507812 1.992188 -3.179688 1.828125 -3.609375 L 1.53125 -1.671875 C 1.375 -0.691406 1.316406 -0.0703125 1.359375 0.1875 C 1.253906 0.207031 1.140625 0.207031 1.015625 0.1875 C 0.828125 0.15625 0.707031 0.101562 0.65625 0.03125 C 0.601562 -0.0390625 0.585938 -0.15625 0.609375 -0.3125 C 0.617188 -0.382812 0.648438 -0.578125 0.703125 -0.890625 C 0.765625 -1.203125 0.8125 -1.441406 0.84375 -1.609375 L 1.09375 -3.078125 C 1.226562 -3.898438 1.273438 -4.472656 1.234375 -4.796875 C 1.347656 -4.816406 1.492188 -4.8125 1.671875 -4.78125 C 1.898438 -4.738281 2.066406 -4.632812 2.171875 -4.46875 C 2.347656 -4.1875 2.597656 -3.632812 2.921875 -2.8125 C 3.253906 -1.988281 3.507812 -1.296875 3.6875 -0.734375 C 3.738281 -1.304688 3.816406 -1.90625 3.921875 -2.53125 C 4.046875 -3.257812 4.128906 -3.859375 4.171875 -4.328125 C 4.273438 -4.328125 4.375 -4.316406 4.46875 -4.296875 C 4.789062 -4.242188 4.9375 -4.125 4.90625 -3.9375 C 4.90625 -3.90625 4.882812 -3.800781 4.84375 -3.625 C 4.800781 -3.457031 4.75 -3.25 4.6875 -3 C 4.632812 -2.757812 4.59375 -2.523438 4.5625 -2.296875 L 4.34375 -1.03125 C 4.226562 -0.34375 4.15625 0.226562 4.125 0.6875 Z M 4.125 0.6875 "/></g></g></g><g fill="#f0860c" fill-opacity="1"><g transform="translate(243.974083, 123.349522)"><g><path d="M 1.890625 -1.203125 L 2.359375 -2.625 C 2.441406 -2.894531 2.554688 -3.25 2.703125 -3.6875 C 2.023438 -3.90625 1.570312 -4.039062 1.34375 -4.09375 C 1.351562 -4.144531 1.378906 -4.234375 1.421875 -4.359375 C 1.460938 -4.484375 1.515625 -4.5625 1.578125 -4.59375 C 1.648438 -4.625 1.738281 -4.617188 1.84375 -4.578125 C 1.957031 -4.546875 2.234375 -4.457031 2.671875 -4.3125 L 3.5 -4.046875 C 4.300781 -3.785156 4.785156 -3.632812 4.953125 -3.59375 C 4.960938 -3.539062 4.945312 -3.457031 4.90625 -3.34375 C 4.863281 -3.21875 4.804688 -3.140625 4.734375 -3.109375 C 4.671875 -3.078125 4.585938 -3.078125 4.484375 -3.109375 C 4.335938 -3.148438 4.003906 -3.253906 3.484375 -3.421875 C 3.296875 -2.921875 3.148438 -2.507812 3.046875 -2.1875 L 2.578125 -0.75 C 2.367188 -0.113281 2.265625 0.363281 2.265625 0.6875 C 2.117188 0.6875 1.960938 0.65625 1.796875 0.59375 C 1.628906 0.539062 1.519531 0.472656 1.46875 0.390625 C 1.425781 0.316406 1.429688 0.203125 1.484375 0.046875 C 1.503906 -0.015625 1.5625 -0.195312 1.65625 -0.5 C 1.757812 -0.800781 1.835938 -1.035156 1.890625 -1.203125 Z M 1.890625 -1.203125 "/></g></g></g><g fill="#f0860c" fill-opacity="1"><g transform="translate(252.720799, 126.626062)"><g><path d="M 3.078125 -3.34375 C 3.003906 -3.15625 2.804688 -2.734375 2.484375 -2.078125 L 3 -1.828125 C 3.351562 -1.648438 3.601562 -1.53125 3.75 -1.46875 C 3.757812 -1.425781 3.738281 -1.351562 3.6875 -1.25 C 3.625 -1.113281 3.554688 -1.035156 3.484375 -1.015625 C 3.410156 -0.992188 3.328125 -1.003906 3.234375 -1.046875 C 3.117188 -1.085938 2.96875 -1.15625 2.78125 -1.25 L 2.21875 -1.53125 C 1.78125 -0.644531 1.53125 -0.109375 1.46875 0.078125 C 1.65625 0.179688 1.8125 0.265625 1.9375 0.328125 C 2.65625 0.679688 3.140625 0.859375 3.390625 0.859375 C 3.378906 0.984375 3.335938 1.113281 3.265625 1.25 C 3.222656 1.34375 3.171875 1.398438 3.109375 1.421875 C 2.984375 1.441406 2.585938 1.289062 1.921875 0.96875 C 1.316406 0.664062 0.941406 0.472656 0.796875 0.390625 C 0.660156 0.328125 0.582031 0.253906 0.5625 0.171875 C 0.539062 0.0859375 0.566406 -0.0195312 0.640625 -0.15625 C 0.679688 -0.238281 0.773438 -0.421875 0.921875 -0.703125 C 1.066406 -0.984375 1.175781 -1.195312 1.25 -1.34375 L 1.890625 -2.65625 C 2.191406 -3.269531 2.410156 -3.789062 2.546875 -4.21875 C 3.054688 -4.007812 3.5625 -3.78125 4.0625 -3.53125 C 4.726562 -3.207031 5.082031 -2.992188 5.125 -2.890625 C 5.164062 -2.828125 5.160156 -2.75 5.109375 -2.65625 C 5.035156 -2.507812 4.953125 -2.390625 4.859375 -2.296875 C 4.660156 -2.515625 4.296875 -2.757812 3.765625 -3.03125 C 3.554688 -3.125 3.328125 -3.226562 3.078125 -3.34375 Z M 3.078125 -3.34375 "/></g></g></g><g fill="#f0860c" fill-opacity="1"><g transform="translate(260.951413, 131.117925)"><g><path d="M 3.4375 2.390625 C 3.34375 2.335938 3.25 2.28125 3.15625 2.21875 C 2.945312 2.070312 2.84375 1.925781 2.84375 1.78125 C 2.875 1.332031 2.929688 0.625 3.015625 -0.34375 C 3.097656 -1.3125 3.15625 -2.023438 3.1875 -2.484375 L 2.109375 -0.859375 C 1.546875 -0.0234375 1.222656 0.507812 1.140625 0.75 C 1.035156 0.726562 0.929688 0.679688 0.828125 0.609375 C 0.671875 0.492188 0.582031 0.390625 0.5625 0.296875 C 0.550781 0.210938 0.59375 0.109375 0.6875 -0.015625 C 0.726562 -0.078125 0.84375 -0.234375 1.03125 -0.484375 C 1.21875 -0.742188 1.359375 -0.941406 1.453125 -1.078125 L 2.3125 -2.3125 C 2.78125 -3 3.0625 -3.5 3.15625 -3.8125 C 3.28125 -3.769531 3.414062 -3.695312 3.5625 -3.59375 C 3.75 -3.457031 3.851562 -3.296875 3.875 -3.109375 C 3.925781 -2.773438 3.921875 -2.164062 3.859375 -1.28125 C 3.804688 -0.40625 3.738281 0.328125 3.65625 0.921875 C 3.9375 0.421875 4.257812 -0.0859375 4.625 -0.609375 C 5.039062 -1.210938 5.375 -1.710938 5.625 -2.109375 C 5.71875 -2.066406 5.804688 -2.019531 5.890625 -1.96875 C 6.160156 -1.769531 6.238281 -1.59375 6.125 -1.4375 C 6.113281 -1.414062 6.050781 -1.335938 5.9375 -1.203125 C 5.832031 -1.066406 5.703125 -0.894531 5.546875 -0.6875 C 5.390625 -0.488281 5.242188 -0.296875 5.109375 -0.109375 L 4.375 0.9375 C 3.976562 1.507812 3.664062 1.992188 3.4375 2.390625 Z M 3.4375 2.390625 "/></g></g></g><g fill="#f0860c" fill-opacity="1"><g transform="translate(269.150349, 137.366853)"><g><path d="M 0.5625 0.015625 C 0.9375 -0.273438 1.546875 -0.851562 2.390625 -1.71875 C 2.992188 -2.34375 3.441406 -2.859375 3.734375 -3.265625 C 4.003906 -3.085938 4.316406 -2.828125 4.671875 -2.484375 C 4.960938 -2.203125 5.191406 -1.914062 5.359375 -1.625 C 5.535156 -1.34375 5.65625 -1.039062 5.71875 -0.71875 C 5.78125 -0.40625 5.742188 -0.078125 5.609375 0.265625 C 5.484375 0.609375 5.253906 0.953125 4.921875 1.296875 C 4.410156 1.835938 3.835938 2.140625 3.203125 2.203125 C 2.578125 2.265625 1.988281 2.03125 1.4375 1.5 C 0.925781 1 0.632812 0.503906 0.5625 0.015625 Z M 3.984375 -2.296875 C 3.785156 -2.054688 3.535156 -1.773438 3.234375 -1.453125 C 2.515625 -0.710938 1.90625 -0.140625 1.40625 0.265625 C 1.457031 0.554688 1.613281 0.828125 1.875 1.078125 C 2.070312 1.273438 2.28125 1.398438 2.5 1.453125 C 2.726562 1.515625 2.945312 1.515625 3.15625 1.453125 C 3.363281 1.390625 3.554688 1.300781 3.734375 1.1875 C 3.910156 1.082031 4.078125 0.953125 4.234375 0.796875 C 4.710938 0.296875 4.957031 -0.1875 4.96875 -0.65625 C 4.976562 -1.132812 4.765625 -1.585938 4.328125 -2.015625 C 4.253906 -2.085938 4.140625 -2.179688 3.984375 -2.296875 Z M 3.984375 -2.296875 "/></g></g></g><g fill="#f0860c" fill-opacity="1"><g transform="translate(276.361216, 144.938909)"><g><path d="M 0.5625 0.109375 C 0.96875 -0.117188 1.660156 -0.597656 2.640625 -1.328125 C 3.335938 -1.847656 3.863281 -2.28125 4.21875 -2.625 C 4.445312 -2.414062 4.707031 -2.113281 5 -1.71875 C 5.25 -1.394531 5.4375 -1.078125 5.5625 -0.765625 C 5.695312 -0.453125 5.765625 -0.132812 5.765625 0.1875 C 5.773438 0.507812 5.6875 0.832031 5.5 1.15625 C 5.320312 1.476562 5.039062 1.78125 4.65625 2.0625 C 4.0625 2.507812 3.445312 2.710938 2.8125 2.671875 C 2.1875 2.640625 1.640625 2.3125 1.171875 1.6875 C 0.742188 1.125 0.539062 0.597656 0.5625 0.109375 Z M 4.296875 -1.625 C 4.046875 -1.414062 3.75 -1.179688 3.40625 -0.921875 C 2.582031 -0.304688 1.894531 0.164062 1.34375 0.5 C 1.34375 0.789062 1.453125 1.078125 1.671875 1.359375 C 1.835938 1.585938 2.023438 1.75 2.234375 1.84375 C 2.453125 1.9375 2.671875 1.96875 2.890625 1.9375 C 3.109375 1.914062 3.3125 1.863281 3.5 1.78125 C 3.6875 1.695312 3.867188 1.585938 4.046875 1.453125 C 4.597656 1.035156 4.914062 0.59375 5 0.125 C 5.09375 -0.34375 4.957031 -0.820312 4.59375 -1.3125 C 4.53125 -1.382812 4.429688 -1.488281 4.296875 -1.625 Z M 4.296875 -1.625 "/></g></g></g><g fill="#f0860c" fill-opacity="1"><g transform="translate(282.268995, 153.581054)"><g><path d="M 4.453125 -0.9375 C 4.285156 -0.820312 3.875 -0.59375 3.21875 -0.25 L 3.484375 0.25 C 3.671875 0.59375 3.8125 0.835938 3.90625 0.984375 C 3.882812 1.015625 3.820312 1.0625 3.71875 1.125 C 3.59375 1.1875 3.492188 1.207031 3.421875 1.1875 C 3.359375 1.164062 3.300781 1.109375 3.25 1.015625 C 3.175781 0.910156 3.09375 0.765625 3 0.578125 L 2.703125 0.03125 C 1.828125 0.5 1.3125 0.796875 1.15625 0.921875 C 1.25 1.109375 1.328125 1.265625 1.390625 1.390625 C 1.765625 2.085938 2.054688 2.515625 2.265625 2.671875 C 2.191406 2.753906 2.082031 2.832031 1.9375 2.90625 C 1.851562 2.957031 1.769531 2.972656 1.6875 2.953125 C 1.582031 2.898438 1.351562 2.546875 1 1.890625 C 0.675781 1.285156 0.484375 0.914062 0.421875 0.78125 C 0.347656 0.644531 0.328125 0.535156 0.359375 0.453125 C 0.390625 0.378906 0.472656 0.304688 0.609375 0.234375 C 0.691406 0.191406 0.875 0.0976562 1.15625 -0.046875 C 1.4375 -0.191406 1.65625 -0.304688 1.8125 -0.390625 L 3.078125 -1.078125 C 3.691406 -1.398438 4.175781 -1.691406 4.53125 -1.953125 C 4.8125 -1.492188 5.085938 -1.019531 5.359375 -0.53125 C 5.710938 0.125 5.878906 0.515625 5.859375 0.640625 C 5.835938 0.703125 5.78125 0.757812 5.6875 0.8125 C 5.539062 0.882812 5.410156 0.925781 5.296875 0.9375 C 5.265625 0.644531 5.109375 0.234375 4.828125 -0.296875 C 4.710938 -0.492188 4.585938 -0.707031 4.453125 -0.9375 Z M 4.453125 -0.9375 "/></g></g></g><g fill="#f0860c" fill-opacity="1"><g transform="translate(286.355747, 162.023687)"><g><path d="M 5.828125 1.515625 C 5.910156 1.628906 5.976562 1.757812 6.03125 1.90625 C 6.082031 2.050781 6.09375 2.160156 6.0625 2.234375 C 6.03125 2.316406 5.945312 2.378906 5.8125 2.421875 C 5.300781 2.609375 4.554688 2.695312 3.578125 2.6875 C 2.597656 2.675781 1.832031 2.578125 1.28125 2.390625 C 1.0625 2.316406 0.910156 2.238281 0.828125 2.15625 C 0.753906 2.082031 0.691406 1.976562 0.640625 1.84375 C 0.597656 1.707031 0.570312 1.613281 0.5625 1.5625 C 1.257812 1.144531 2.03125 0.582031 2.875 -0.125 C 3.71875 -0.832031 4.210938 -1.363281 4.359375 -1.71875 C 4.640625 -1.53125 4.8125 -1.347656 4.875 -1.171875 C 4.9375 -1.003906 4.894531 -0.847656 4.75 -0.703125 C 4.4375 -0.378906 3.96875 0.0234375 3.34375 0.515625 C 2.71875 1.003906 2.132812 1.4375 1.59375 1.8125 C 2.15625 1.957031 2.820312 2.015625 3.59375 1.984375 C 4.363281 1.953125 5 1.847656 5.5 1.671875 C 5.664062 1.609375 5.773438 1.554688 5.828125 1.515625 Z M 5.828125 1.515625 "/></g></g></g><g fill="#f0860c" fill-opacity="1"><g transform="translate(289.327928, 171.599398)"><g><path d="M 4.53125 0.390625 C 4.332031 0.453125 3.867188 0.554688 3.140625 0.703125 L 3.265625 1.265625 C 3.335938 1.648438 3.398438 1.925781 3.453125 2.09375 C 3.421875 2.113281 3.351562 2.132812 3.25 2.15625 C 3.101562 2.1875 3 2.179688 2.9375 2.140625 C 2.875 2.097656 2.832031 2.023438 2.8125 1.921875 C 2.769531 1.796875 2.726562 1.632812 2.6875 1.4375 L 2.5625 0.8125 C 1.59375 1.007812 1.015625 1.144531 0.828125 1.21875 C 0.859375 1.425781 0.890625 1.597656 0.921875 1.734375 C 1.078125 2.515625 1.234375 3.007812 1.390625 3.21875 C 1.285156 3.28125 1.160156 3.328125 1.015625 3.359375 C 0.910156 3.378906 0.828125 3.367188 0.765625 3.328125 C 0.671875 3.242188 0.550781 2.832031 0.40625 2.09375 C 0.269531 1.4375 0.191406 1.03125 0.171875 0.875 C 0.140625 0.71875 0.148438 0.609375 0.203125 0.546875 C 0.253906 0.484375 0.351562 0.4375 0.5 0.40625 C 0.59375 0.382812 0.796875 0.34375 1.109375 0.28125 C 1.421875 0.226562 1.660156 0.1875 1.828125 0.15625 L 3.25 -0.125 C 3.925781 -0.257812 4.472656 -0.40625 4.890625 -0.5625 C 5.035156 -0.03125 5.164062 0.507812 5.28125 1.0625 C 5.425781 1.789062 5.472656 2.207031 5.421875 2.3125 C 5.390625 2.375 5.316406 2.414062 5.203125 2.4375 C 5.054688 2.46875 4.921875 2.472656 4.796875 2.453125 C 4.847656 2.148438 4.8125 1.707031 4.6875 1.125 C 4.644531 0.90625 4.59375 0.660156 4.53125 0.390625 Z M 4.53125 0.390625 "/></g></g></g><g fill="#f0860c" fill-opacity="1"><g transform="translate(290.758786, 180.881657)"><g><path d="M 1.703125 0.375 L 3.25 0.28125 C 3.945312 0.238281 4.519531 0.191406 4.96875 0.140625 C 4.976562 0.253906 4.988281 0.390625 5 0.546875 C 5.019531 0.867188 4.941406 1.035156 4.765625 1.046875 C 4.734375 1.046875 4.628906 1.046875 4.453125 1.046875 C 4.285156 1.046875 4.070312 1.046875 3.8125 1.046875 C 3.5625 1.054688 3.320312 1.066406 3.09375 1.078125 L 2.453125 1.109375 C 1.460938 1.171875 0.863281 1.226562 0.65625 1.28125 C 0.65625 1.476562 0.65625 1.632812 0.65625 1.75 C 0.707031 2.488281 0.796875 2.957031 0.921875 3.15625 C 0.816406 3.21875 0.695312 3.253906 0.5625 3.265625 C 0.394531 3.273438 0.285156 3.21875 0.234375 3.09375 C 0.179688 2.96875 0.144531 2.757812 0.125 2.46875 L 0.09375 1.8125 C 0.0625 1.375 0.046875 1.046875 0.046875 0.828125 C 0.0351562 0.679688 0.0625 0.578125 0.125 0.515625 C 0.195312 0.460938 0.304688 0.429688 0.453125 0.421875 C 0.535156 0.421875 0.71875 0.414062 1 0.40625 C 1.289062 0.394531 1.523438 0.382812 1.703125 0.375 Z M 1.703125 0.375 "/></g></g></g><g fill="#f0860c" fill-opacity="1"><g transform="translate(290.913435, 189.87131)"><g><path d="M -0.328125 2.65625 C -0.265625 1.945312 0.015625 1.398438 0.515625 1.015625 C 1.023438 0.628906 1.660156 0.472656 2.421875 0.546875 C 3.203125 0.617188 3.800781 0.890625 4.21875 1.359375 C 4.644531 1.835938 4.828125 2.429688 4.765625 3.140625 C 4.691406 3.859375 4.398438 4.410156 3.890625 4.796875 C 3.390625 5.179688 2.75 5.335938 1.96875 5.265625 C 1.207031 5.191406 0.613281 4.914062 0.1875 4.4375 C -0.226562 3.96875 -0.398438 3.375 -0.328125 2.65625 Z M 1.921875 4.390625 C 2.285156 4.429688 2.617188 4.414062 2.921875 4.34375 C 3.234375 4.28125 3.507812 4.140625 3.75 3.921875 C 3.988281 3.710938 4.128906 3.4375 4.171875 3.09375 C 4.210938 2.625 4.082031 2.238281 3.78125 1.9375 C 3.476562 1.632812 3.070312 1.457031 2.5625 1.40625 C 2.1875 1.375 1.835938 1.390625 1.515625 1.453125 C 1.203125 1.515625 0.921875 1.648438 0.671875 1.859375 C 0.429688 2.078125 0.296875 2.359375 0.265625 2.703125 C 0.210938 3.191406 0.34375 3.582031 0.65625 3.875 C 0.96875 4.164062 1.390625 4.335938 1.921875 4.390625 Z M 1.921875 4.390625 "/></g></g></g><g fill="#f0860c" fill-opacity="1"><g transform="translate(289.354299, 200.798235)"><g><path d="M 1.765625 2.4375 C 1.691406 2.71875 1.722656 2.957031 1.859375 3.15625 C 2.003906 3.351562 2.226562 3.488281 2.53125 3.5625 C 2.9375 3.664062 3.238281 3.648438 3.4375 3.515625 C 3.632812 3.390625 3.785156 3.144531 3.890625 2.78125 C 3.910156 2.675781 3.9375 2.523438 3.96875 2.328125 C 3.695312 2.273438 3.242188 2.164062 2.609375 2 L 2.046875 1.859375 C 1.921875 2.003906 1.828125 2.195312 1.765625 2.4375 Z M 1.546875 0.921875 L 2.984375 1.296875 C 3.648438 1.472656 4.210938 1.585938 4.671875 1.640625 C 4.640625 2.015625 4.578125 2.394531 4.484375 2.78125 C 4.128906 4.144531 3.414062 4.691406 2.34375 4.421875 C 1.832031 4.285156 1.476562 4.035156 1.28125 3.671875 C 1.082031 3.304688 1.03125 2.929688 1.125 2.546875 C 1.207031 2.222656 1.363281 1.957031 1.59375 1.75 L 1.09375 1.609375 C 0.46875 1.453125 -0.00390625 1.378906 -0.328125 1.390625 C -0.328125 1.273438 -0.304688 1.128906 -0.265625 0.953125 C -0.210938 0.765625 -0.144531 0.644531 -0.0625 0.59375 C 0.0078125 0.550781 0.117188 0.546875 0.265625 0.578125 C 0.335938 0.597656 0.523438 0.648438 0.828125 0.734375 C 1.140625 0.816406 1.378906 0.878906 1.546875 0.921875 Z M 1.546875 0.921875 "/></g></g></g><g fill="#f0860c" fill-opacity="1"><g transform="translate(286.573245, 209.9062)"><g><path d="M 3.515625 2.875 C 3.335938 2.8125 2.90625 2.632812 2.21875 2.34375 L 2 2.875 C 1.84375 3.238281 1.742188 3.5 1.703125 3.65625 C 1.648438 3.65625 1.570312 3.632812 1.46875 3.59375 C 1.332031 3.539062 1.25 3.476562 1.21875 3.40625 C 1.195312 3.34375 1.207031 3.265625 1.25 3.171875 C 1.28125 3.046875 1.335938 2.882812 1.421875 2.6875 L 1.671875 2.109375 C 0.765625 1.734375 0.207031 1.519531 0 1.46875 C -0.0820312 1.664062 -0.148438 1.828125 -0.203125 1.953125 C -0.515625 2.691406 -0.664062 3.1875 -0.65625 3.4375 C -0.769531 3.4375 -0.898438 3.40625 -1.046875 3.34375 C -1.140625 3.300781 -1.195312 3.242188 -1.21875 3.171875 C -1.257812 3.066406 -1.132812 2.664062 -0.84375 1.96875 C -0.582031 1.34375 -0.414062 0.960938 -0.34375 0.828125 C -0.28125 0.679688 -0.207031 0.597656 -0.125 0.578125 C -0.0507812 0.554688 0.0546875 0.570312 0.203125 0.625 C 0.285156 0.664062 0.46875 0.742188 0.75 0.859375 C 1.039062 0.984375 1.265625 1.082031 1.421875 1.15625 L 2.765625 1.71875 C 3.398438 1.976562 3.9375 2.164062 4.375 2.28125 C 4.1875 2.800781 3.988281 3.320312 3.78125 3.84375 C 3.488281 4.519531 3.296875 4.882812 3.203125 4.9375 C 3.140625 4.976562 3.054688 4.972656 2.953125 4.921875 C 2.804688 4.867188 2.6875 4.796875 2.59375 4.703125 C 2.800781 4.484375 3.019531 4.101562 3.25 3.5625 C 3.332031 3.351562 3.421875 3.125 3.515625 2.875 Z M 3.515625 2.875 "/></g></g></g><g fill="#f0860c" fill-opacity="1"><g transform="translate(282.573141, 218.395992)"><g><path d="M -1.125 3.25 C -1.3125 3.28125 -1.441406 3.351562 -1.515625 3.46875 C -1.546875 3.53125 -1.570312 3.582031 -1.59375 3.625 C -1.695312 3.613281 -1.773438 3.59375 -1.828125 3.5625 C -1.929688 3.5 -1.972656 3.398438 -1.953125 3.265625 C -1.941406 3.128906 -1.894531 2.988281 -1.8125 2.84375 C -1.65625 2.59375 -1.398438 2.441406 -1.046875 2.390625 C -0.796875 2.359375 -0.476562 2.359375 -0.09375 2.390625 C 0.289062 2.429688 0.609375 2.476562 0.859375 2.53125 C 0.960938 2.457031 1.0625 2.445312 1.15625 2.5 C 1.238281 2.550781 1.3125 2.617188 1.375 2.703125 C 1.320312 2.753906 1.269531 2.828125 1.21875 2.921875 C 1.082031 3.148438 1.035156 3.382812 1.078125 3.625 C 1.117188 3.863281 1.28125 4.066406 1.5625 4.234375 C 1.863281 4.421875 2.113281 4.472656 2.3125 4.390625 C 2.519531 4.316406 2.71875 4.117188 2.90625 3.796875 C 2.976562 3.679688 3.050781 3.535156 3.125 3.359375 C 2.875 3.234375 2.445312 2.988281 1.84375 2.625 L 0.59375 1.875 C 0.03125 1.539062 -0.40625 1.332031 -0.71875 1.25 C -0.6875 1.132812 -0.625 0.992188 -0.53125 0.828125 C -0.425781 0.671875 -0.332031 0.578125 -0.25 0.546875 C -0.164062 0.523438 -0.0546875 0.550781 0.078125 0.625 C 0.140625 0.664062 0.304688 0.769531 0.578125 0.9375 C 0.847656 1.113281 1.054688 1.242188 1.203125 1.328125 L 2.484375 2.09375 C 3.078125 2.445312 3.585938 2.71875 4.015625 2.90625 C 3.867188 3.257812 3.691406 3.609375 3.484375 3.953125 C 2.765625 5.148438 1.972656 5.488281 1.109375 4.96875 C 0.773438 4.769531 0.550781 4.519531 0.4375 4.21875 C 0.332031 3.914062 0.328125 3.59375 0.421875 3.25 C -0.335938 3.164062 -0.851562 3.164062 -1.125 3.25 Z M -1.125 3.25 "/></g></g></g></svg>